<svg width="76" height="21" viewBox="0 0 76 21" fill="none" xmlns="http://www.w3.org/2000/svg">
<g clip-path="url(#clip0_217_634)">
<path d="M10.4502 19.6464C9.30696 19.8517 8.14358 19.9132 6.94012 20.0771L3.26941 9.08501V20.5489C2.12614 20.6719 1.08315 20.8359 0 21V0H3.04891L7.22089 11.9152V0H10.4502V19.6464ZM16.7685 7.69043C18.0122 7.69043 19.9177 7.62889 21.061 7.62889V10.9101C19.6368 10.9101 17.9721 10.9101 16.7685 10.9716V15.8526C18.6541 15.7295 20.5395 15.5653 22.4449 15.5038V18.6618L13.5592 19.3797V0H22.4449V3.28125H16.7685V7.69043ZM34.3795 3.28133H31.0499V18.3751C29.9667 18.3751 28.8836 18.3751 27.8407 18.416V3.28133H24.5111V0H34.3796L34.3795 3.28133ZM39.5945 7.46491H43.9873V10.7461H39.5945V18.1905H36.4452V0H45.4114V3.28125H39.5945V7.46491ZM50.6265 15.3193C52.4518 15.3602 54.297 15.504 56.0823 15.6064V18.8467C53.214 18.662 50.3457 18.4776 47.4172 18.416V0H50.6265V15.3193ZM58.7901 19.0723C59.813 19.1339 60.8962 19.1954 61.9392 19.3183V0H58.7901V19.0723ZM76 0L71.9281 9.98734L76 21C74.7964 20.8359 73.5929 20.6103 72.3894 20.4052L70.0828 14.335L67.7363 19.9132C66.5727 19.7079 65.4494 19.6464 64.2863 19.4823L68.4182 9.86418L64.6873 0H68.1371L70.2432 5.51661L72.4898 0H76V0Z" fill="#D81F26"/>
</g>
<defs>
<clipPath id="clip0_217_634">
<rect width="76" height="21" fill="white"/>
</clipPath>
</defs>
</svg>
